#!OML:ASF H:\Pregnant\Project 1\Capture day 1\Session 1\femalepreg.ASF
:FULLY-SPECIFIED
:DEGREES
637
root 3.39518 15.2877 32.0429 233.832 -82.9218 -212.224
lowerback -13.6982 -1.00574 -5.80657
upperback -7.47126 -1.08281 0.152097
thorax -0.125977 -0.558541 3.28636
lowerneck -27.0327 4.06652 6.058
upperneck 20.1857 3.5943 -1.50857
head 11.1269 1.90867 -0.922058
rclavicle 3.81729e-015 -6.95746e-015
rhumerus -31.6874 -2.83802 -82.4416
rradius 30.6355
rwrist -12.0819
rhand -22.9662 -25.2716
rfingers 7.12502
rthumb 3.47576 -55.223
lclavicle 3.81729e-015 -6.95746e-015
lhumerus -32.8946 -8.62588 86.482
lradius 29.3826
lwrist 46.1351
lhand -36.6323 9.92552
lfingers 7.12502
lthumb -9.71992 39.6812
rfemur -39.071 7.36742 5.82697
rtibia 52.2754
rfoot -19.2974 -25.6881
rtoes 5.0467
lfemur -29.5963 -10.1373 -26.8678
ltibia 13.8511
lfoot -3.14555 5.26941
ltoes -8.24571
638
root 3.38586 15.2882 32.0526 233.565 -83.0021 -211.82
lowerback -13.7167 -1.09146 -5.91069
upperback -7.42482 -1.17858 0.199776
thorax -0.0562249 -0.60426 3.38124
lowerneck -27.1074 4.10535 6.10331
upperneck 20.0975 3.62057 -1.49484
head 11.1088 1.92506 -0.918871
rclavicle 1.93178e-014 -1.78906e-015
rhumerus -31.9155 -3.402 -81.8525
rradius 29.6716
rwrist -11.2285
rhand -22.4256 -25.1391
rfingers 7.12502
rthumb 3.99777 -55.0813
lclavicle 1.93178e-014 -1.78906e-015
lhumerus -33.0806 -8.94784 86.317
lradius 29.1857
lwrist 46.4346
lhand -36.5948 10.2378
lfingers 7.12502
lthumb -9.68374 39.9952
rfemur -39.7851 7.52434 6.34591
rtibia 52.6587
rfoot -19.4396 -24.4894
rtoes 2.85038
lfemur -29.9935 -9.95986 -26.8559
ltibia 14.388
lfoot -3.4488 5.10243
ltoes -8.26875
639
root 3.3728 15.2909 32.0531 231.72 -82.9804 -210.005
lowerback -13.6395 -1.09162 -6.05573
upperback -7.3214 -1.1555 0.269857
thorax 0.0118046 -0.587492 3.53981
lowerneck -27.1886 4.1073 6.08813
upperneck 20.0117 3.61366 -1.45916
head 11.0895 1.9245 -0.90363
rclavicle -1.86361e-017 -2.34566e-014
rhumerus -32.1855 -4.02554 -81.2153
rradius 28.7436
rwrist -10.3051
rhand -21.8222 -24.9871
rfingers 7.12502
rthumb 4.58047 -54.9176
lclavicle -1.86361e-017 -2.34566e-014
lhumerus -33.2913 -9.44505 86.2338
lradius 29.0263
lwrist 46.4807
lhand -36.497 10.4539
lfingers 7.12502
lthumb -9.5894 40.2157
rfemur -40.2914 8.05462 6.94796
rtibia 52.8912
rfoot -19.6121 -23.3358
rtoes 0.718975
lfemur -30.2075 -9.53297 -26.8149
ltibia 15.0283
lfoot -3.89177 4.94261
ltoes -8.30463
640
root 3.35645 15.2949 32.0457 228.484 -82.8491 -206.947
lowerback -13.4783 -1.00998 -6.22255
upperback -7.16951 -1.02154 0.3539
thorax 0.0744073 -0.513333 3.74122
lowerneck -27.2619 4.0762 6.03841
upperneck 19.9255 3.57211 -1.4108
head 11.0662 1.90724 -0.884386
rclavicle -5.37029e-015 -1.13307e-014
rhumerus -32.5 -4.71753 -80.5424
rradius 27.8473
rwrist -9.32832
rhand -21.2316 -24.8236
rfingers 7.12502
rthumb 5.15075 -54.741
lclavicle -5.37029e-015 -1.13307e-014
lhumerus -33.5333 -10.0962 86.2148
lradius 28.9053
lwrist 46.2808
lhand -36.3548 10.5543
lfingers 7.12502
lthumb -9.45216 40.3223
rfemur -40.6028 8.89986 7.63023
rtibia 52.9804
rfoot -19.7995 -22.2488
rtoes -1.26097
lfemur -30.2729 -8.88319 -26.739
ltibia 15.789
lfoot -4.46867 4.79636
ltoes -8.37168
641
root 3.33767 15.2987 32.0328 224.404 -82.6177 -203.158
lowerback -13.2558 -0.865541 -6.3962
upperback -6.98627 -0.804565 0.448861
thorax 0.126686 -0.396666 3.96929
lowerneck -27.3097 4.01988 5.96353
upperneck 19.8348 3.5065 -1.35781
head 11.0353 1.87781 -0.863978
rclavicle 1.6906e-014 -1.21259e-014
rhumerus -32.87 -5.40406 -79.8497
rradius 26.9989
rwrist -8.38363
rhand -20.7052 -24.6494
rfingers 7.12502
rthumb 5.65899 -54.5539
lclavicle 1.6906e-014 -1.21259e-014
lhumerus -33.812 -10.8479 86.2463
lradius 28.8195
lwrist 45.833
lhand -36.1621 10.5508
lfingers 7.12502
lthumb -9.26618 40.3271
rfemur -40.757 9.97912 8.37026
rtibia 52.9569
rfoot -20.0325 -21.2394
rtoes -2.91121
lfemur -30.2312 -8.09372 -26.6224
ltibia 16.644
lfoot -5.13739 4.68318
ltoes -8.47493
642
root 3.3183 15.3007 32.0185 220.329 -82.3312 -199.389
lowerback -13.0351 -0.690504 -6.55291
upperback -6.80189 -0.549611 0.544766
thorax 0.174162 -0.261822 4.19306
lowerneck -27.3519 3.94148 5.84464
upperneck 19.7484 3.42444 -1.28876
head 11.0032 1.83966 -0.833561
rclavicle -5.53802e-015 4.96962e-015
rhumerus -33.2875 -6.03954 -79.1615
rradius 26.2159
rwrist -7.55071
rhand -20.3127 -24.5195
rfingers 7.12502
rthumb 6.03797 -54.4134
lclavicle -5.53802e-015 4.96962e-015
lhumerus -34.12 -11.6796 86.3308
lradius 28.7683
lwrist 45.1774
lhand -35.9329 10.4532
lfingers 7.12502
lthumb -9.04502 40.2392
rfemur -40.8656 11.1322 9.12342
rtibia 52.8659
rfoot -20.2478 -20.346
rtoes -4.37614
lfemur -30.1843 -7.30065 -26.4743
ltibia 17.5335
lfoot -5.82629 4.61461
ltoes -8.55787
643
root 3.30029 15.3 32.0075 217.065 -82.0948 -196.347
lowerback -12.8737 -0.540154 -6.66245
upperback -6.65384 -0.333339 0.626453
thorax 0.217489 -0.148742 4.36925
lowerneck -27.3817 3.8595 5.71685
upperneck 19.6692 3.34224 -1.22021
head 10.9716 1.80081 -0.802071
rclavicle 1.47535e-015 9.14409e-015
rhumerus -33.7412 -6.68888 -78.4548
rradius 25.48
rwrist -6.68064
rhand -20.0005 -24.4276
rfingers 7.12502
rthumb 6.33929 -54.3127
lclavicle 1.47535e-015 9.14409e-015
lhumerus -34.4663 -12.5621 86.4503
lradius 28.7601
lwrist 44.3743
lhand -35.6784 10.2797
lfingers 7.12502
lthumb -8.79951 40.0762
rfemur -41.0405 12.1786 9.82846
rtibia 52.753
rfoot -20.5033 -19.5349
rtoes -5.54876
lfemur -30.2424 -6.68591 -26.3064
ltibia 18.39
lfoot -6.44271 4.5974
ltoes -8.59971
644
root 3.28427 15.2971 32.0023 214.813 -81.9718 -194.188
lowerback -12.7964 -0.445155 -6.71154
upperback -6.55577 -0.19717 0.683767
thorax 0.262389 -0.0787953 4.47487
lowerneck -27.4019 3.79279 5.6154
upperneck 19.5993 3.27482 -1.16485
head 10.9434 1.76908 -0.777159
rclavicle -1.61606e-014 -1.58034e-014
rhumerus -34.2273 -7.20493 -77.8175
rradius 24.82
rwrist -5.97961
rhand -19.8972 -24.3814
rfingers 7.12502
rthumb 6.43903 -54.2635
lclavicle -1.61606e-014 -1.58034e-014
lhumerus -34.8458 -13.4614 86.5812
lradius 28.7903
lwrist 43.4636
lhand -35.4053 10.0311
lfingers 7.12502
lthumb -8.53593 39.8385
rfemur -41.3337 13.0319 10.452
rtibia 52.6409
rfoot -20.8172 -18.7872
rtoes -6.34978
lfemur -30.4422 -6.32923 -26.135
ltibia 19.1696
lfoot -6.94431 4.634
ltoes -8.62253
645
root 3.27098 15.2927 32.0046 213.729 -82.025 -193.017
lowerback -12.8355 -0.423612 -6.68904
upperback -6.52246 -0.165498 0.711834
thorax 0.315027 -0.0647323 4.49584
lowerneck -27.4254 3.73871 5.53046
upperneck 19.5425 3.22093 -1.12024
head 10.9218 1.74343 -0.756418
rclavicle -1.12096e-014 -4.96962e-015
rhumerus -34.7307 -7.80241 -77.1277
rradius 24.2014
rwrist -5.03107
rhand -19.6605 -24.4054
rfingers 7.12502
rthumb 6.66756 -54.2804
lclavicle -1.12096e-014 -4.96962e-015
lhumerus -35.2472 -14.372 86.7272
lradius 28.8558
lwrist 42.4857
lhand -35.1245 9.7429
lfingers 7.12502
lthumb -8.26489 39.5612
rfemur -41.8041 13.6159 10.9637
rtibia 52.5366
rfoot -21.1852 -18.0703
rtoes -6.77045
lfemur -30.8443 -6.30344 -25.9661
ltibia 19.8504
lfoot -7.29458 4.72119
ltoes -8.5995
646
root 3.25854 15.2877 32.0105 213.229 -82.1678 -192.35
lowerback -12.9307 -0.455907 -6.64229
upperback -6.51993 -0.207658 0.733632
thorax 0.374743 -0.0890768 4.48701
lowerneck -27.4444 3.71414 5.48645
upperneck 19.4992 3.19942 -1.1048
head 10.907 1.73191 -0.747343
rclavicle 1.97232e-015 -1.799e-014
rhumerus -35.2467 -8.25792 -76.515
rradius 23.6562
rwrist -4.23704
rhand -19.6319 -24.4741
rfingers 7.12502
rthumb 6.69512 -54.3483
lclavicle 1.97232e-015 -1.799e-014
lhumerus -35.6709 -15.2343 86.8702
lradius 28.9517
lwrist 41.467
lhand -34.8325 9.43577
lfingers 7.12502
lthumb -7.98316 39.265
rfemur -42.3454 14.0628 11.4096
rtibia 52.4231
rfoot -21.5792 -17.3982
rtoes -7.01856
lfemur -31.3096 -6.42845 -25.8111
ltibia 20.4356
lfoot -7.55447 4.81222
ltoes -8.57575
647
root 3.24547 15.283 32.016 212.809 -82.3137 -191.774
lowerback -13.027 -0.494649 -6.60287
upperback -6.52063 -0.257911 0.753711
thorax 0.432498 -0.117287 4.47934
lowerneck -27.4412 3.69679 5.46698
upperneck 19.4614 3.18549 -1.11203
head 10.8916 1.72286 -0.749448
rclavicle -1.00883e-014 -1.10325e-014
rhumerus -35.7919 -8.70686 -75.9011
rradius 23.1757
rwrist -3.44991
rhand -19.7199 -24.5805
rfingers 7.12502
rthumb 6.61024 -54.4574
lclavicle -1.00883e-014 -1.10325e-014
lhumerus -36.1153 -16.0801 87.0202
lradius 29.072
lwrist 40.439
lhand -34.5185 9.13266
lfingers 7.12502
lthumb -7.68005 38.9732
rfemur -42.8593 14.5024 11.8324
rtibia 52.2841
rfoot -22.0025 -16.7497
rtoes -7.07857
lfemur -31.7166 -6.55424 -25.6701
ltibia 20.9366
lfoot -7.77797 4.88774
ltoes -8.57238
